<?xml version="1.0" encoding="utf-8"?>
<!-- Generator: Adobe Illustrator 24.3.0, SVG Export Plug-In . SVG Version: 6.00 Build 0)  -->
<svg version="1.1" id="Calque_1" xmlns="http://www.w3.org/2000/svg" xmlns:xlink="http://www.w3.org/1999/xlink" x="0px" y="0px"
	 viewBox="0 0 1000 453.4" style="enable-background:new 0 0 1000 453.4;" xml:space="preserve">
<style type="text/css">
	.st0{fill:#E8A879;}
	.st1{fill:#F4BC8F;}
</style>
<g>
	<path class="st0" d="M665.7,30.8c22.3-38.5-11.3-34.3-36.9-22.5c-28.4,13.2-51.5,13.5-80.3,19.5l-5.4,93.6
		C578.5,112.7,645.5,65.6,665.7,30.8z"/>
	<path class="st1" d="M689.7,168c-8-42.8,13.5-72.3-24.7-91.3c-35.9-17.9-78.2-30.6-115.9-43.8C462.3,2.4,353.6,0.5,240.6,14.3
		c-43.4,5.3-223.4,53-230.7,60.6l-6.1,17c-5,8.2-4.1,40.7-3.1,51c1.9,19.2,17.5,39.3,31.1,52.4c7.3,7,15.4,14.5,23.1,20.4
		c10.3,7.8,11.1,6.4,22.7,0.4c18.2-9.5,37.1-17.5,56.3-23.4c29.6-9,95.5-21.2,95.5-21.2s23.8,28.8,39.9,39.7
		c65.1,44.1,136.8,55.1,204.4,65.8c57.9,9.2,141.7,21.8,190.3-18.9C689.6,236.8,695.6,199.7,689.7,168z"/>
	<path class="st1" d="M484.8,15.9c0,0,101.2,3.6,287,83.7c27.5,11.8,214.7,104.1,188.5,134.8c-8.3,9.8-145.7-62.5-191.5-79.9
		c-45.9-17.3-236.4-64.3-236.4-64.3L484.8,15.9z"/>
	<path class="st1" d="M561.7,283.3c0,0,77.1,29.6,99.6,64.8c26.9,42,23.3,107.3,47,105.2c11.5-1,16.9-67.1-1.1-110.4
		c-15.1-36.2-56.9-83.1-65.2-92C633.7,242.1,561.7,283.3,561.7,283.3z"/>
	<path class="st1" d="M676.9,116.9c0,0,115.9,61.8,165.3,94.2c56.2,36.9,169,133.5,156.9,151.8c-16.7,25.3-108.2-59.7-182.4-103.6
		c-60.1-35.5-153.3-71.6-153.3-71.6L676.9,116.9z"/>
	<path class="st1" d="M673.8,194.5c0,0,111.6,72.9,135.7,94.8S920,394.4,911.7,406c-14.6,20.3-67.1-26.7-127.9-77.3
		c-53-44.1-140.3-71.5-140.3-71.5L673.8,194.5z"/>
</g>
</svg>
