<?xml version="1.0" encoding="utf-8"?>
<!-- Generator: Adobe Illustrator 24.3.0, SVG Export Plug-In . SVG Version: 6.00 Build 0)  -->
<svg version="1.1" id="Calque_1" xmlns="http://www.w3.org/2000/svg" xmlns:xlink="http://www.w3.org/1999/xlink" x="0px" y="0px"
	 viewBox="0 0 1000 475" style="enable-background:new 0 0 1000 475;" xml:space="preserve">
<style type="text/css">
	.st0{fill:#F4BC8F;}
	.st1{fill:#E8A879;}
</style>
<g>
	<path class="st0" d="M222.8,212c0,0,76.6,4.6,115.5-13.3c38.8-17.8,122.1-148.9,166-165.5c43.8-16.6,168.5-36.3,183.2-30
		c20.1,8.7,37.9,32.4,37.9,32.4s26.4-0.2,35.2,12.3c8.9,12.5,17.8,31.3,12.8,42.6S756,113.2,756,113.2s21.3-7.7,28.9,8.6
		c7.6,16.3,10.9,38.2-0.9,54c-8.8,11.7-43.8,26.6-43.8,26.6s8.8,7.5,9,27.6c0.1,20.1-22.3,41.6-22.3,41.6s6.3-2.5,8.9,20
		c2.6,22.6,2.7,37.7-24.8,54.2s-61.2,60.7-148.9,85.1s-159.4,38.6-214.6,41.5s-103-4.4-103-4.4s-26.5-76.3-30.8-102.8
		C197.4,264.8,222.8,212,222.8,212z"/>
	<path class="st1" d="M675.2,52.2c0.2,33.6,4,49.7,25,79c10.8,15,28.4,23.1,28.4,23.1c6.3,6.2-25.1,5.8-47.8-14.1
		c-10.5-9.2-30.4-46.3-30.4-46.3c-22.5,17.7-57.6,20.4-57.6,20.4l-53-41.1c0,0,34.8-5.2,71.1-12.2C642.6,54.9,675.1,44.7,675.2,52.2
		z"/>
	<path class="st1" d="M623.9,90.2c-18.8,6.4-36.3,16.6-32.4,36.6c3.4,17.4,13.9,21.3,13.9,21.3s-20,8.1-19.9,31.5
		c0.2,31.4,19,31.3,19,31.3s-48.9,19.1-44.9,46.7s35.3,27.4,35.3,27.4s-12.5,8.7-13.6,26.5c-1.1,17.6,12.7,31.3,30.3,32.5
		c21.3,1.4,51.5,2.2,42.7-1.5s-29-14.9-27.8-31.2c0.9-12.6,3.6-30.2,3.6-30.2s-18.9-3.6-17.8-32.5c1-28.1,32.4-36.6,32.4-36.6
		l35.1-6.5c0,0-17.1-7.6-20.3-27.5c-5.2-32.6,18.6-44.1,18.6-44.1L657.7,80L623.9,90.2z"/>
	<path class="st1" d="M354.9,241.3c-1.7-9.9-4.5-16.1-2.6-26.4c1.5-8.3,6.3-16.9,7.2-25c-2.3-0.6-2.9,0.3-4.8,1.1l-1.3-1.2
		c-18.7,5.3-17.8,35.2-14.8,50.3c2.1,10.7,9.3,19.6,11.2,30.1c1.6,8.8-2.9,23.9,8.1,26.2C362.4,282.9,357.3,255.7,354.9,241.3z"/>
	<path class="st1" d="M446.6,456.7c7.7-1.3,14.6-3,21.6-4.9c3.4-0.9,6.4-2,9.7-2.9c3-0.8,12.6,0,8.8-1.3h3.8
		c-22.2-6.1-64.3,23.1-78.2-6.7c-5.8-12.5-3.4-24.1-11.5-36.4c-5.6-8.6-9.7-28.5-17.3-32.7c-2.3,13.6,7.4,33.2,8.9,47.6
		c1.3,12.5-5.1,35.5,9.1,42.6C414.4,468.6,434.1,458.8,446.6,456.7z"/>
	<g>
		<path class="st1" d="M540.9,256.5c3-12.4,6.3-26.6,8.5-39c1.6-9.1,0.2-17.6-0.2-26.4c-4.7,23.7-11.1,45.9-22.5,67.8
			c-9.7,18.7-28,25.1-39.1,40.6C510.7,298.9,535.6,278.7,540.9,256.5z"/>
		<path class="st1" d="M550.4,176c-1.2,5.2-1.4,10.2-1.2,15.1l0,0L550.4,176z"/>
	</g>
	<g>
		<path class="st1" d="M725.2,35.4l-0.5,1.4c0.2-0.1,0.3-0.1,0.5-0.2C725.2,36.1,725.1,35.7,725.2,35.4z"/>
		<path class="st1" d="M725.2,35.4l0.2-0.5C725.2,35,725.2,35.2,725.2,35.4z"/>
		<path class="st1" d="M736.1,145.3c5.8-0.8,12.9-8.1,18.7-10.7c5.2-2.3,25.9-8.6,30.1-12.7c0,0-5.6-12.3-12.6-14.4
			c-1.8-0.5-4.4-0.6-7.2-0.4c11.7-11.5,20.1-27.5,14.5-42.9c-3.4-9.4-9.7-23.5-19-28.1c-6.9-3.4-27.5-2.4-35.3,0.6
			c0.5,4,3.2,13.8,3.4,17.1c0.4,7.3,0.8,14.6,1.5,22c0.8,8.5,3.6,16.3,3.8,25.1c0.1,4.6,0,11.8,1.3,17.2
			C734.6,127.3,734.4,141.3,736.1,145.3z"/>
	</g>
	<path class="st1" d="M645.4,208.7c4.3-3.4,19.1-2,25.1-2.7c8.1-0.9,15.4-1.7,23.8-2.2c9.8-0.5,41.1-8.6,47.2,1.1
		c-6.8,5.6-24.6,2.5-33.2,3.4c-14.9,1.6-29.6,6.4-43.9,11.4c-9.3,3.3-19,5.6-28.2,9.1c-7.8,2.9-15.7,7.1-24.1,7.8
		c-19.8,1.8,3.4-27,15.1-22.8L645.4,208.7z"/>
	<path class="st1" d="M727.4,271c-5.7-4.6-18.5,4.2-25.1,5.2c-10.2,1.6-20.8,3.4-31.2,3.9c-9.1,0.5-60.4-4-55.8,14.7
		c8.2,3.5,22.9-5.1,31.2-7c11.1-2.5,22.7-4.2,33.9-5.9c14.4-2.2,34.7-1.4,45.7-11.6L727.4,271z"/>
</g>
</svg>
